<?xml version="1.0" standalone="no"?><!DOCTYPE svg PUBLIC "-//W3C//DTD SVG 1.1//EN" "http://www.w3.org/Graphics/SVG/1.1/DTD/svg11.dtd"><svg t="1516517615270" class="icon" style="" viewBox="0 0 1024 1024" version="1.1" xmlns="http://www.w3.org/2000/svg" p-id="1158" xmlns:xlink="http://www.w3.org/1999/xlink" width="200" height="200"><defs><style type="text/css"></style></defs><path d="M500.3264 822.33344c3.80928 5.65248 10.17856 9.03168 16.97792 9.03168l0 0c6.81984 0 13.18912-3.39968 16.97792-9.03168l193.24928-287.08864c23.10144-36.84352 35.328-79.1552 35.328-122.38848 0-130.58048-110.24384-236.83072-245.76-236.83072s-245.76 106.25024-245.76 236.83072c0 43.29472 12.26752 85.68832 35.81952 123.12576L500.3264 822.33344zM517.12 216.96512c112.92672 0 204.8 87.87968 204.8 195.87072 0 35.51232-10.05568 70.30784-28.71296 100.06528l-175.9232 261.3248-175.80032-260.62848c-19.08736-30.35136-29.16352-65.18784-29.16352-100.7616C312.32 304.8448 404.19328 216.96512 517.12 216.96512z" p-id="1159"></path><path d="M517.12 524.61568c64.2048 0 116.44928-50.52416 116.44928-112.64s-52.224-112.64-116.44928-112.64-116.44928 50.52416-116.44928 112.64S452.9152 524.61568 517.12 524.61568zM517.12 340.29568c41.61536 0 75.48928 32.1536 75.48928 71.68s-33.85344 71.68-75.48928 71.68-75.48928-32.1536-75.48928-71.68S475.50464 340.29568 517.12 340.29568z" p-id="1160"></path></svg>